# AST/ASF file generated using VICON BodyLanguage
# -----------------------------------------------
:version 1.10
:name VICON
:units
  mass 1.0
  length 0.45
  angle deg
:documentation
   .ast/.asf automatically generated from VICON data using
   VICON BodyBuilder and BodyLanguage model FoxedUp or BRILLIANT.MOD
:root
   order TX TY TZ RX RY RZ
   axis XYZ
   position 0 0 0  
   orientation 0 0 0 
:bonedata
  begin
     id 1 
     name lhipjoint
     direction 0.521452 -0.77106 0.36545 
     length 2.0933 
     axis 0 0 0  XYZ
  end
  begin
     id 2 
     name lfemur
     direction 0.34202 -0.939693 0  
     length 6.83441  
     axis 0 0 20  XYZ
    dof rx ry rz
    limits (-160.0 20.0)
           (-70.0 70.0)
           (-60.0 70.0)
  end
  begin
     id 3 
     name ltibia
     direction 0.34202 -0.939693 0   
     length 7.28749   
     axis 0 0 20   XYZ
    dof rx
    limits (-10.0 170.0)
  end
  begin
     id 4 
     name lfoot
     direction 0.100608 -0.276418 0.955757   
     length 1.52195   
     axis -90 7.62852e-016 20   XYZ
    dof rx rz
    limits (-45.0 90.0)
           (-70.0 20.0)
  end
  begin
     id 5 
     name ltoes
     direction 1.53558e-011 -4.21907e-011 1   
     length 0.770459   
     axis -90 7.62852e-016 20   XYZ
    dof rx
    limits (-90.0 20.0)
  end
  begin
     id 6 
     name rhipjoint
     direction -0.488071 -0.788702 0.373812   
     length 2.04648  
     axis 0 0 0  XYZ 
  end
  begin
     id 7 
     name rfemur
     direction -0.34202 -0.939693 0   
     length 6.92583   
     axis 0 0 -20   XYZ
    dof rx ry rz
    limits (-160.0 20.0)
           (-70.0 70.0)
           (-70.0 60.0)
  end
  begin
     id 8 
     name rtibia
     direction -0.34202 -0.939693 0   
     length 7.41043   
     axis 0 0 -20   XYZ
    dof rx
    limits (-10.0 170.0)
 end
 begin
     id 9 
     name rfoot
     direction -0.0784433 -0.215521 0.973343   
     length 1.67708  
     axis -90 -7.62852e-016 -20   XYZ
    dof rx rz
    limits (-45.0 90.0)
           (-20.0 70.0)
  end
  begin
     id 10 
     name rtoes
     direction -1.53551e-011 -4.21842e-011 1   
     length 0.849787   
     axis -90 -7.62852e-016 -20   XYZ
    dof rx
    limits (-90.0 20.0)
  end
  begin
     id 11 
     name lowerback
     direction -0.0122332 0.997575 -0.0685192   
     length 1.98724   
     axis 0 0 0   XYZ
    dof rx ry rz
    limits (-20.0 45.0)
           (-30.0 30.0)
           (-30.0 30.0)
  end
  begin
     id 12 
     name upperback
     direction 0.0182347 0.999724 -0.0148421   
     length 1.99029   
     axis 0 0 0   XYZ
    dof rx ry rz
    limits (-20.0 45.0)
           (-30.0 30.0)
           (-30.0 30.0)
  end
  begin
     id 13 
     name thorax
     direction 0.0242908 0.99956 0.0170184   
     length 1.99573   
     axis 0 0 0   XYZ
    dof rx ry rz
    limits (-20.0 45.0)
           (-30.0 30.0)
           (-30.0 30.0)
  end
  begin
     id 14 
     name lowerneck
     direction 0.0654488 0.985533 0.156338   
     length 1.4285   
     axis 0 0 0   XYZ
    dof rx ry rz
    limits (-20.0 45.0)
           (-30.0 30.0)
           (-30.0 30.0)
  end
  begin
     id 15 
     name upperneck
     direction -0.02953 0.998556 -0.0448842   
     length 1.44709   
     axis 0 0 0   XYZ
    dof rx ry rz
    limits (-20.0 45.0)
           (-30.0 30.0)
           (-30.0 30.0)
  end
  begin
     id 16
     name head
     direction -0.0155588 0.999386 -0.0314063  
     length 1.44689  
     axis 0 0 0   XYZ
    dof rx ry rz
    limits (-20.0 45.0)
           (-30.0 30.0)
           (-30.0 30.0)
  end
  begin
     id 17 
     name lclavicle
     direction 0.968229 0.236071 -0.0824755  
     length 3.60593  
     axis 0 0 0   XYZ
    dof ry rz
    limits (-20.0 10.0)
           (0.0 20.0)
  end
  begin
     id 18 
     name lhumerus
     direction 1 -4.48968e-011 7.8138e-029   
     length 5.06035   
     axis 180 -30 -90   XYZ
    dof rx ry rz
    limits (-60.0 90.0)
           (-90.0 90.0)
           (-90.0 90.0)
  end
  begin
     id 19
     name lradius
     direction 1 -4.48967e-011 9.02887e-028   
     length 3.1478   
     axis 180 -30 -90   XYZ
    dof rx
    limits (-10.0 170.0)
  end
  begin
     id 20
     name lwrist
     direction 1 -4.48961e-011 7.20928e-028   
     length 1.5739   
     axis -5.52449e-016 90 90   XYZ
    dof ry
    limits (-180.0 0.0)
 end
  begin
     id 21 
     name lhand
     direction 1 -4.48972e-011 1.44186e-027   
     length 0.606747   
     axis -9.20027e-016 90 90   XYZ
    dof rx rz
    limits (-90.0 90.0)
           (-45.0 45.0)
  end
  begin
     id 22 
     name lfingers
     direction 1 -4.48943e-011 2.88371e-027   
     length 0.489175   
     axis -1.84005e-015 90 90   XYZ
    dof rx
    limits (0.0 90.0)
  end
  begin
     id 23
     name lthumb
     direction 0.707107 -6.34917e-011 0.707107   
     length 0.70236   
     axis -90 45 2.85299e-015   XYZ
    dof rx rz
    limits (-45.0 45.0)
           (-45.0 45.0)
  end
  begin
     id 24 
     name rclavicle
     direction -0.978165 0.207816 0.0022268   
     length 3.35425  
     axis 0 0 0   XYZ 
    dof ry rz
    limits (-10.0 20.0)
           (-20.0 0.0)
  end
  begin
     id 25 
     name rhumerus
     direction -1 -4.48964e-011 -4.02159e-027  
     length 5.12273   
     axis 180 30 90   XYZ
    dof rx ry rz
    limits (-90.0 60.0)
           (-90.0 90.0)
           (-90.0 90.0)
  end
  begin
     id 26 
     name rradius
     direction -1 -4.48966e-011 1.62746e-027   
     length 3.422   
     axis 180 30 90   XYZ
    dof rx
    limits (-10.0 170.0)
  end
  begin
     id 27 
     name rwrist
     direction -1 -4.4896e-011 7.20928e-028   
     length 1.711   
     axis -5.52449e-016 -90 -90   XYZ
    dof ry
    limits (-180.0 0.0)
  end
  begin
     id 28
     name rhand
     direction -1 -4.48979e-011 1.44186e-027   
     length 0.704599   
     axis -9.20027e-016 -90 -90   XYZ
    dof rx rz
    limits (-90.0 90.0)
           (-45.0 45.0)
  end
  begin
     id 29
     name rfingers
     direction -1 -4.48962e-011 2.88371e-027   
     length 0.568066   
     axis -1.84005e-015 -90 -90   XYZ
    dof rx
    limits (0.0 90.0)
  end
  begin
     id 30
     name rthumb
     direction -0.707107 -6.34949e-011 0.707107   
     length 0.815633   
     axis -90 -45 -2.85299e-015   XYZ
    dof rx rz
    limits (-45.0 45.0)
           (-45.0 45.0)
  end
:hierarchy
  begin
    root lhipjoint rhipjoint lowerback
    lhipjoint lfemur
    lfemur ltibia
    ltibia lfoot
    lfoot ltoes
    rhipjoint rfemur
    rfemur rtibia
    rtibia rfoot
    rfoot rtoes
    lowerback upperback
    upperback thorax
    thorax lowerneck lclavicle rclavicle
    lowerneck upperneck
    upperneck head
    lclavicle lhumerus
    lhumerus lradius
    lradius lwrist
    lwrist lhand lthumb
    lhand lfingers
    rclavicle rhumerus
    rhumerus rradius
    rradius rwrist
    rwrist rhand rthumb
    rhand rfingers
  end

#!OML:ASF E:\id_vita\Project 1\Capture day 1\Session 1\Male1.ASF
:FULLY-SPECIFIED
:DEGREES
422
root 19.2611 2.79329 4.52031 8.28868 89.2468 37.9039
lowerback 41.7091 -3.44587 -17.1562
upperback 14.9611 -8.68218 2.73362
thorax -0.0622118 -4.70119 14.5162
lowerneck -2.26566 -18.7248 -14.1329
upperneck -3.7635 -24.9469 18.1033
head 3.2945 -12.3424 5.84069
rclavicle -1.63457e-013 4.71865e-014
rhumerus -33.1459 9.7898 -76.8531
rradius 39.5753
rwrist 15.7228
rhand -44.0047 -93.9403
rfingers 7.12502
rthumb -16.8258 64.6493
lclavicle -1.63457e-013 4.71865e-014
lhumerus 33.6927 -36.4821 18.8937
lradius 45.8254
lwrist 26.7325
lhand 5.72735 46.2355
lfingers 7.12502
lthumb 31.0635 73.6249
rfemur -102.875 -15.0218 43.0596
rtibia 94.4801
rfoot 6.27818 15.0759
rtoes -9.16555
lfemur -98.1485 18.2072 -33.1855
ltibia 78.3937
lfoot 30.5296 7.7233
ltoes 41.4926
423
root 19.2611 2.79366 4.52092 5.03412 89.2517 34.6429
lowerback 41.7124 -3.49629 -17.1234
upperback 14.9673 -8.73148 2.73826
thorax -0.0461457 -4.72708 14.5189
lowerneck -2.33541 -18.7526 -14.1079
upperneck -3.68002 -24.988 18.1189
head 3.33565 -12.3575 5.82481
rclavicle -4.96962e-015 -2.74074e-014
rhumerus -33.1212 9.89265 -76.8625
rradius 39.6423
rwrist 15.7525
rhand -43.9891 -93.8419
rfingers 7.12502
rthumb -16.8107 64.5496
lclavicle -4.96962e-015 -2.74074e-014
lhumerus 33.5058 -36.4604 19.0207
lradius 45.8165
lwrist 26.6642
lhand 5.78655 46.1802
lfingers 7.12502
lthumb 31.1199 73.5587
rfemur -102.879 -15.0438 43.137
rtibia 94.4765
rfoot 6.24702 15.09
rtoes -9.11753
lfemur -98.1468 18.1968 -33.1102
ltibia 78.3907
lfoot 30.5355 7.70367
ltoes 41.4159
424
root 19.2615 2.79406 4.52158 1.54034 89.2534 31.1315
lowerback 41.6793 -3.55522 -17.0697
upperback 14.9925 -8.77474 2.73924
thorax -0.0037082 -4.75194 14.5022
lowerneck -2.40456 -18.778 -14.1543
upperneck -3.59301 -25.0271 18.1723
head 3.3917 -12.3703 5.82648
rclavicle -2.77802e-014 -3.37934e-015
rhumerus -33.0692 9.95635 -76.8664
rradius 39.7083
rwrist 15.7897
rhand -43.9559 -93.7761
rfingers 7.12502
rthumb -16.7787 64.4811
lclavicle -2.77802e-014 -3.37934e-015
lhumerus 33.3721 -36.4063 19.1259
lradius 45.7898
lwrist 26.5831
lhand 5.86532 46.1405
lfingers 7.12502
lthumb 31.195 73.5046
rfemur -102.895 -15.0587 43.2198
rtibia 94.4692
rfoot 6.22416 15.1031
rtoes -8.99237
lfemur -98.164 18.1868 -33.0388
ltibia 78.3952
lfoot 30.5444 7.65004
ltoes 41.2735
425
root 19.2617 2.7946 4.52226 -2.183 89.2528 27.3838
lowerback 41.6323 -3.61321 -16.9976
upperback 15.0206 -8.80677 2.74607
thorax 0.0399947 -4.77066 14.4793
lowerneck -2.46274 -18.8121 -14.257
upperneck -3.49797 -25.0809 18.257
head 3.46214 -12.3899 5.84059
rclavicle -3.78312e-014 8.80119e-014
rhumerus -33.0059 9.96018 -76.8443
rradius 39.7554
rwrist 15.8479
rhand -43.8997 -93.7748
rfingers 7.12502
rthumb -16.7246 64.4752
lclavicle -3.78312e-014 8.80119e-014
lhumerus 33.3103 -36.369 19.1803
lradius 45.7639
lwrist 26.5323
lhand 5.92338 46.125
lfingers 7.12502
lthumb 31.2503 73.4784
rfemur -102.917 -15.0685 43.3091
rtibia 94.4599
rfoot 6.20933 15.1104
rtoes -8.8289
lfemur -98.1928 18.1777 -32.9701
ltibia 78.4055
lfoot 30.5526 7.58649
ltoes 41.1114
426
root 19.2619 2.79517 4.52276 -5.42951 89.2462 24.112
lowerback 41.5844 -3.66051 -16.9195
upperback 15.041 -8.82397 2.76144
thorax 0.070487 -4.78043 14.4596
lowerneck -2.5051 -18.862 -14.3938
upperneck -3.39539 -25.1595 18.3654
head 3.54385 -12.4217 5.86162
rclavicle -8.58377e-014 3.82164e-014
rhumerus -32.9578 9.91184 -76.7906
rradius 39.7967
rwrist 15.9187
rhand -43.8259 -93.8171
rfingers 7.12502
rthumb -16.6536 64.5115
lclavicle -8.58377e-014 3.82164e-014
lhumerus 33.3364 -36.4027 19.1335
lradius 45.7703
lwrist 26.5658
lhand 5.91003 46.1217
lfingers 7.12502
lthumb 31.2376 73.4776
rfemur -102.939 -15.0722 43.3942
rtibia 94.4505
rfoot 6.19809 15.111
rtoes -8.68812
lfemur -98.2244 18.1727 -32.9108
ltibia 78.4189
lfoot 30.5499 7.55995
ltoes 41.0207
427
root 19.262 2.79564 4.52298 -8.24245 89.2305 21.2794
lowerback 41.5464 -3.69401 -16.8403
upperback 15.0502 -8.82668 2.78447
thorax 0.0814727 -4.78084 14.4455
lowerneck -2.49315 -18.9126 -14.5673
upperneck -3.31928 -25.2436 18.5102
head 3.62022 -12.459 5.90163
rclavicle 4.8081e-014 3.926e-015
rhumerus -32.9444 9.84601 -76.7173
rradius 39.851
rwrist 15.9862
rhand -43.7654 -93.8758
rfingers 7.12502
rthumb -16.5953 64.5653
lclavicle 4.8081e-014 3.926e-015
lhumerus 33.425 -36.5133 18.9944
lradius 45.8189
lwrist 26.6764
lhand 5.79518 46.1019
lfingers 7.12502
lthumb 31.1281 73.4788
rfemur -102.953 -15.0682 43.4777
rtibia 94.4415
rfoot 6.18855 15.1028
rtoes -8.61578
lfemur -98.2507 18.1761 -32.8558
ltibia 78.433
lfoot 30.5265 7.6029
ltoes 41.0657
428
root 19.2622 2.79596 4.52296 -10.2689 89.2094 19.2456
lowerback 41.5323 -3.71323 -16.7736
upperback 15.043 -8.82244 2.81455
thorax 0.0676758 -4.77573 14.4462
lowerneck -2.36889 -18.9405 -14.7941
upperneck -3.32639 -25.3022 18.717
head 3.66661 -12.4909 5.98261
rclavicle 9.13167e-014 -8.46823e-014
rhumerus -32.9823 9.8074 -76.6377
rradius 39.9348
rwrist 16.042
rhand -43.7568 -93.9129
rfingers 7.12502
rthumb -16.5871 64.6018
lclavicle 9.13167e-014 -8.46823e-014
lhumerus 33.514 -36.6719 18.8369
lradius 45.8944
lwrist 26.8143
lhand 5.57248 46.0573
lfingers 7.12502
lthumb 30.9159 73.4748
rfemur -102.955 -15.0637 43.5533
rtibia 94.4353
rfoot 6.17885 15.0892
rtoes -8.61075
lfemur -98.2616 18.1847 -32.8036
ltibia 78.4466
lfoot 30.4789 7.7021
ltoes 41.2215
429
root 19.2627 2.79619 4.52279 -10.1258 89.1942 19.3906
lowerback 41.5434 -3.7193 -16.7445
upperback 15.0177 -8.82296 2.84674
thorax 0.0343247 -4.77263 14.4716
lowerneck -2.1319 -18.9389 -15.044
upperneck -3.44774 -25.3232 18.9807
head 3.66735 -12.5128 6.10379
rclavicle -9.9939e-014 5.50634e-014
rhumerus -33.0602 9.81224 -76.5599
rradius 40.0308
rwrist 16.1092
rhand -43.8273 -93.932
rfingers 7.12502
rthumb -16.655 64.6265
lclavicle -9.9939e-014 5.50634e-014
lhumerus 33.5433 -36.8347 18.7429
lradius 45.9711
lwrist 26.9223
lhand 5.28699 46.0092
lfingers 7.12502
lthumb 30.6437 73.4779
rfemur -102.957 -15.068 43.5951
rtibia 94.436
rfoot 6.16893 15.0828
rtoes -8.6263
lfemur -98.2543 18.1871 -32.7736
ltibia 78.4587
lfoot 30.4114 7.81731
ltoes 41.4079
430
root 19.2635 2.79651 4.52262 -7.52607 89.1896 21.9922
lowerback 41.5714 -3.718 -16.76
upperback 14.9814 -8.83612 2.87494
thorax -0.0049097 -4.77715 14.5196
lowerneck -1.88211 -18.9255 -15.2112
upperneck -3.6418 -25.3213 19.2261
head 3.62817 -12.5274 6.22018
rclavicle 1.71203e-014 3.17062e-014
rhumerus -33.1393 9.85226 -76.4925
rradius 40.0962
rwrist 16.2291
rhand -43.9904 -93.9922
rfingers 7.12502
rthumb -16.812 64.7001
lclavicle 1.71203e-014 3.17062e-014
lhumerus 33.4777 -36.9513 18.7649
lradius 46.0249
lwrist 26.9501
lhand 5.04434 45.9877
lfingers 7.12502
lthumb 30.4123 73.4995
rfemur -102.971 -15.0825 43.5942
rtibia 94.4437
rfoot 6.16244 15.0925
rtoes -8.62381
lfemur -98.2362 18.1767 -32.7748
ltibia 78.4688
lfoot 30.3336 7.91065
ltoes 41.541
431
root 19.2643 2.79701 4.52258 -3.38133 89.1905 26.1334
lowerback 41.6071 -3.71499 -16.8056
upperback 14.9431 -8.86036 2.89779
thorax -0.0404437 -4.78882 14.5797
lowerneck -1.72504 -18.9262 -15.2364
upperneck -3.8204 -25.3263 19.3792
head 3.57773 -12.5421 6.28631
rclavicle -3.598e-014 -2.85256e-014
rhumerus -33.2063 9.91217 -76.4379
rradius 40.1269
rwrist 16.4257
rhand -44.2379 -94.0799
rfingers 7.12502
rthumb -17.0502 64.8082
lclavicle -3.598e-014 -2.85256e-014
lhumerus 33.3363 -37.0047 18.8886
lradius 46.0484
lwrist 26.9
lhand 4.94154 46.013
lfingers 7.12502
lthumb 30.3142 73.5429
rfemur -102.997 -15.1019 43.5608
rtibia 94.4538
rfoot 6.15972 15.1188
rtoes -8.60568
lfemur -98.2165 18.1554 -32.7964
ltibia 78.478
lfoot 30.2565 7.96926
ltoes 41.5909
432
root 19.2651 2.79755 4.52268 1.13386 89.1879 30.636
lowerback 41.6363 -3.71216 -16.8589
upperback 14.9103 -8.88622 2.91652
thorax -0.0662594 -4.80263 14.6386
lowerneck -1.69348 -18.9518 -15.158
upperneck -3.91595 -25.3559 19.4276
head 3.5468 -12.5617 6.29342
rclavicle -3.52346e-014 5.60573e-014
rhumerus -33.2713 9.96644 -76.3911
rradius 40.149
rwrist 16.7022
rhand -44.5461 -94.0843
rfingers 7.12502
rthumb -17.3468 64.8384
lclavicle -3.52346e-014 5.60573e-014
lhumerus 33.179 -37.0159 19.0489
lradius 46.0512
lwrist 26.8175
lhand 4.99523 46.075
lfingers 7.12502
lthumb 30.3654 73.5955
rfemur -103.028 -15.1154 43.5086
rtibia 94.4595
rfoot 6.1551 15.1574
rtoes -8.60001
lfemur -98.2073 18.1322 -32.8264
ltibia 78.4897
lfoot 30.189 8.00962
ltoes 41.5978
433
root 19.2657 2.79792 4.52291 4.06215 89.175 33.5459
lowerback 41.6489 -3.71167 -16.8919
upperback 14.8907 -8.90276 2.93234
thorax -0.0790553 -4.81224 14.6798
lowerneck -1.75955 -18.9961 -15.0276
upperneck -3.92316 -25.407 19.3945
head 3.54183 -12.5851 6.25616
rclavicle 5.34731e-014 -3.47873e-015
rhumerus -33.3326 9.99723 -76.354
rradius 40.18
rwrist 17.0124
rhand -44.8613 -93.9697
rfingers 7.12502
rthumb -17.6502 64.7508
lclavicle 5.34731e-014 -3.47873e-015
lhumerus 33.052 -37.0088 19.1925
lradius 46.044
lwrist 26.7356
lhand 5.12772 46.1369
lfingers 7.12502
lthumb 30.4918 73.634
rfemur -103.049 -15.111 43.4674
rtibia 94.4553
rfoot 6.14464 15.1946
rtoes -8.64613
lfemur -98.2165 18.1227 -32.8431
ltibia 78.5073
lfoot 30.1364 8.05185
ltoes 41.6161
434
root 19.266 2.79797 4.52324 3.53574 89.1516 33.0092
lowerback 41.6547 -3.7146 -16.8824
upperback 14.8848 -8.90359 2.94999
thorax -0.0868459 -4.81265 14.6966
lowerneck -1.84107 -19.0449 -14.9119
upperneck -3.89379 -25.4659 19.3363
head 3.5492 -12.6106 6.20931
rclavicle 5.79954e-014 -3.12092e-014
rhumerus -33.3856 10.019 -76.3289
rradius 40.2311
rwrist 17.2506
rhand -45.0945 -93.7841
rfingers 7.12502
rthumb -17.8746 64.5855
lclavicle 5.79954e-014 -3.12092e-014
lhumerus 32.9577 -36.9984 19.3126
lradius 46.0332
lwrist 26.6676
lhand 5.24004 46.1729
lfingers 7.12502
lthumb 30.5989 73.65
rfemur -103.041 -15.0842 43.4748
rtibia 94.4403
rfoot 6.13181 15.2094
rtoes -8.76133
lfemur -98.2357 18.1391 -32.8151
ltibia 78.5322
lfoot 30.1003 8.10242
ltoes 41.675
435
root 19.2659 2.79778 4.52354 0.418479 89.1157 29.8976
lowerback 41.6698 -3.71921 -16.8468
upperback 14.8824 -8.89686 2.97303
thorax -0.0999142 -4.80782 14.7047
lowerneck -1.86691 -19.0834 -14.8714
upperneck -3.87586 -25.5166 19.3109
head 3.55748 -12.6343 6.18647
rclavicle -5.56597e-015 -2.09718e-014
rhumerus -33.4182 10.0635 -76.3096
rradius 40.2896
rwrist 17.3506
rhand -45.1927 -93.6095
rfingers 7.12502
rthumb -17.9691 64.4196
lclavicle -5.56597e-015 -2.09718e-014
lhumerus 32.8532 -36.987 19.4393
lradius 46.0255
lwrist 26.6167
lhand 5.30134 46.1895
lfingers 7.12502
lthumb 30.6574 73.6557
rfemur -103.004 -15.042 43.5314
rtibia 94.4195
rfoot 6.1239 15.1967
rtoes -8.90528
lfemur -98.2493 18.1778 -32.7426
ltibia 78.5608
lfoot 30.0731 8.15913
ltoes 41.769
